G04 #@! TF.FileFunction,Legend,Top*
%FSLAX46Y46*%
G04 Gerber Fmt 4.6, Leading zero omitted, Abs format (unit mm)*
G04 Created by KiCad (PCBNEW 4.0.6) date 06/04/17 20:23:42*
%MOMM*%
%LPD*%
G01*
G04 APERTURE LIST*
%ADD10C,0.150000*%
%ADD11C,0.300000*%
%ADD12C,0.100000*%
%ADD13C,0.152400*%
%ADD14C,0.254000*%
%ADD15C,0.304800*%
%ADD16C,0.381000*%
%ADD17C,0.120000*%
%ADD18C,0.088900*%
%ADD19C,0.203200*%
G04 APERTURE END LIST*
D10*
D11*
X44677144Y-37498571D02*
X44677144Y-36498571D01*
X44677144Y-36784286D02*
X44748572Y-36641429D01*
X44820001Y-36570000D01*
X44962858Y-36498571D01*
X45105715Y-36498571D01*
X46248572Y-36498571D02*
X46248572Y-37498571D01*
X45605715Y-36498571D02*
X45605715Y-37284286D01*
X45677143Y-37427143D01*
X45820001Y-37498571D01*
X46034286Y-37498571D01*
X46177143Y-37427143D01*
X46248572Y-37355714D01*
X46962858Y-37498571D02*
X46962858Y-36498571D01*
X46962858Y-36784286D02*
X47034286Y-36641429D01*
X47105715Y-36570000D01*
X47248572Y-36498571D01*
X47391429Y-36498571D01*
X48605715Y-37498571D02*
X47891429Y-37498571D01*
X47891429Y-35998571D01*
X49677143Y-37427143D02*
X49534286Y-37498571D01*
X49248572Y-37498571D01*
X49105715Y-37427143D01*
X49034286Y-37284286D01*
X49034286Y-36712857D01*
X49105715Y-36570000D01*
X49248572Y-36498571D01*
X49534286Y-36498571D01*
X49677143Y-36570000D01*
X49748572Y-36712857D01*
X49748572Y-36855714D01*
X49034286Y-36998571D01*
X51034286Y-37498571D02*
X51034286Y-35998571D01*
X51034286Y-37427143D02*
X50891429Y-37498571D01*
X50605715Y-37498571D01*
X50462857Y-37427143D01*
X50391429Y-37355714D01*
X50320000Y-37212857D01*
X50320000Y-36784286D01*
X50391429Y-36641429D01*
X50462857Y-36570000D01*
X50605715Y-36498571D01*
X50891429Y-36498571D01*
X51034286Y-36570000D01*
X51748572Y-37498571D02*
X51748572Y-35998571D01*
X52105715Y-35998571D01*
X52320000Y-36070000D01*
X52462858Y-36212857D01*
X52534286Y-36355714D01*
X52605715Y-36641429D01*
X52605715Y-36855714D01*
X52534286Y-37141429D01*
X52462858Y-37284286D01*
X52320000Y-37427143D01*
X52105715Y-37498571D01*
X51748572Y-37498571D01*
X53248572Y-37498571D02*
X53248572Y-36498571D01*
X53248572Y-35998571D02*
X53177143Y-36070000D01*
X53248572Y-36141429D01*
X53320000Y-36070000D01*
X53248572Y-35998571D01*
X53248572Y-36141429D01*
X53962858Y-37498571D02*
X53962858Y-36498571D01*
X53962858Y-36641429D02*
X54034286Y-36570000D01*
X54177144Y-36498571D01*
X54391429Y-36498571D01*
X54534286Y-36570000D01*
X54605715Y-36712857D01*
X54605715Y-37498571D01*
X54605715Y-36712857D02*
X54677144Y-36570000D01*
X54820001Y-36498571D01*
X55034286Y-36498571D01*
X55177144Y-36570000D01*
X55248572Y-36712857D01*
X55248572Y-37498571D01*
X55962858Y-37498571D02*
X55962858Y-36498571D01*
X55962858Y-36641429D02*
X56034286Y-36570000D01*
X56177144Y-36498571D01*
X56391429Y-36498571D01*
X56534286Y-36570000D01*
X56605715Y-36712857D01*
X56605715Y-37498571D01*
X56605715Y-36712857D02*
X56677144Y-36570000D01*
X56820001Y-36498571D01*
X57034286Y-36498571D01*
X57177144Y-36570000D01*
X57248572Y-36712857D01*
X57248572Y-37498571D01*
X58534286Y-37427143D02*
X58391429Y-37498571D01*
X58105715Y-37498571D01*
X57962858Y-37427143D01*
X57891429Y-37284286D01*
X57891429Y-36712857D01*
X57962858Y-36570000D01*
X58105715Y-36498571D01*
X58391429Y-36498571D01*
X58534286Y-36570000D01*
X58605715Y-36712857D01*
X58605715Y-36855714D01*
X57891429Y-36998571D01*
X59248572Y-37498571D02*
X59248572Y-36498571D01*
X59248572Y-36784286D02*
X59320000Y-36641429D01*
X59391429Y-36570000D01*
X59534286Y-36498571D01*
X59677143Y-36498571D01*
X48998572Y-39048571D02*
X49355715Y-40048571D01*
X49712857Y-39048571D01*
X50284286Y-39905714D02*
X50355714Y-39977143D01*
X50284286Y-40048571D01*
X50212857Y-39977143D01*
X50284286Y-39905714D01*
X50284286Y-40048571D01*
X52927143Y-40048571D02*
X52070000Y-40048571D01*
X52498572Y-40048571D02*
X52498572Y-38548571D01*
X52355715Y-38762857D01*
X52212857Y-38905714D01*
X52070000Y-38977143D01*
X53570000Y-39905714D02*
X53641428Y-39977143D01*
X53570000Y-40048571D01*
X53498571Y-39977143D01*
X53570000Y-39905714D01*
X53570000Y-40048571D01*
X55070000Y-40048571D02*
X54212857Y-40048571D01*
X54641429Y-40048571D02*
X54641429Y-38548571D01*
X54498572Y-38762857D01*
X54355714Y-38905714D01*
X54212857Y-38977143D01*
X47284287Y-41241429D02*
X47355716Y-41170000D01*
X47498573Y-41098571D01*
X47855716Y-41098571D01*
X47998573Y-41170000D01*
X48070002Y-41241429D01*
X48141430Y-41384286D01*
X48141430Y-41527143D01*
X48070002Y-41741429D01*
X47212859Y-42598571D01*
X48141430Y-42598571D01*
X49070001Y-41098571D02*
X49212858Y-41098571D01*
X49355715Y-41170000D01*
X49427144Y-41241429D01*
X49498573Y-41384286D01*
X49570001Y-41670000D01*
X49570001Y-42027143D01*
X49498573Y-42312857D01*
X49427144Y-42455714D01*
X49355715Y-42527143D01*
X49212858Y-42598571D01*
X49070001Y-42598571D01*
X48927144Y-42527143D01*
X48855715Y-42455714D01*
X48784287Y-42312857D01*
X48712858Y-42027143D01*
X48712858Y-41670000D01*
X48784287Y-41384286D01*
X48855715Y-41241429D01*
X48927144Y-41170000D01*
X49070001Y-41098571D01*
X50998572Y-42598571D02*
X50141429Y-42598571D01*
X50570001Y-42598571D02*
X50570001Y-41098571D01*
X50427144Y-41312857D01*
X50284286Y-41455714D01*
X50141429Y-41527143D01*
X51498572Y-41098571D02*
X52498572Y-41098571D01*
X51855715Y-42598571D01*
X54141428Y-41027143D02*
X52855714Y-42955714D01*
X54927143Y-41098571D02*
X55070000Y-41098571D01*
X55212857Y-41170000D01*
X55284286Y-41241429D01*
X55355715Y-41384286D01*
X55427143Y-41670000D01*
X55427143Y-42027143D01*
X55355715Y-42312857D01*
X55284286Y-42455714D01*
X55212857Y-42527143D01*
X55070000Y-42598571D01*
X54927143Y-42598571D01*
X54784286Y-42527143D01*
X54712857Y-42455714D01*
X54641429Y-42312857D01*
X54570000Y-42027143D01*
X54570000Y-41670000D01*
X54641429Y-41384286D01*
X54712857Y-41241429D01*
X54784286Y-41170000D01*
X54927143Y-41098571D01*
X56712857Y-41098571D02*
X56427143Y-41098571D01*
X56284286Y-41170000D01*
X56212857Y-41241429D01*
X56070000Y-41455714D01*
X55998571Y-41741429D01*
X55998571Y-42312857D01*
X56070000Y-42455714D01*
X56141428Y-42527143D01*
X56284286Y-42598571D01*
X56570000Y-42598571D01*
X56712857Y-42527143D01*
X56784286Y-42455714D01*
X56855714Y-42312857D01*
X56855714Y-41955714D01*
X56784286Y-41812857D01*
X56712857Y-41741429D01*
X56570000Y-41670000D01*
X56284286Y-41670000D01*
X56141428Y-41741429D01*
X56070000Y-41812857D01*
X55998571Y-41955714D01*
D12*
X60960000Y-24130000D02*
X60960000Y-73660000D01*
X13970000Y-24130000D02*
X13970000Y-73660000D01*
X60960000Y-73660000D02*
X13970000Y-73660000D01*
X13970000Y-24130000D02*
X60960000Y-24130000D01*
D13*
X15240000Y-48260000D02*
X17780000Y-48260000D01*
X17780000Y-48260000D02*
X17780000Y-55880000D01*
X17780000Y-55880000D02*
X15240000Y-55880000D01*
X15240000Y-55880000D02*
X15240000Y-48260000D01*
X17780000Y-50800000D02*
X15240000Y-50800000D01*
D14*
X28498800Y-60960000D02*
X28498800Y-58420000D01*
D13*
X25753136Y-58714473D02*
G75*
G03X25400000Y-59690000I1170864J-975527D01*
G01*
X25401889Y-59690469D02*
G75*
G03X25786080Y-60700920I1522111J469D01*
G01*
X28446147Y-59689966D02*
G75*
G03X28079700Y-58699400I-1522147J-34D01*
G01*
X28094864Y-60665527D02*
G75*
G03X28448000Y-59690000I-1170864J975527D01*
G01*
X28163166Y-58802845D02*
G75*
G03X26924000Y-58166000I-1239166J-887155D01*
G01*
X26923199Y-58166000D02*
G75*
G03X25704800Y-58775600I801J-1524000D01*
G01*
X26924442Y-61212206D02*
G75*
G03X28125420Y-60624720I-442J1522206D01*
G01*
X25721436Y-60626171D02*
G75*
G03X26924000Y-61214000I1202564J936171D01*
G01*
X26924000Y-59055000D02*
G75*
G03X26289000Y-59690000I0J-635000D01*
G01*
X26924000Y-58674000D02*
G75*
G03X25908000Y-59690000I0J-1016000D01*
G01*
X26924000Y-60325000D02*
G75*
G03X27559000Y-59690000I0J635000D01*
G01*
X26924000Y-60706000D02*
G75*
G03X27940000Y-59690000I0J1016000D01*
G01*
D14*
X28482880Y-58386574D02*
G75*
G03X26924000Y-57658000I-1558880J-1303426D01*
G01*
X26923025Y-57660540D02*
G75*
G03X25133300Y-58734960I975J-2029460D01*
G01*
X26926552Y-61719386D02*
G75*
G03X28473400Y-61000640I-2552J2029386D01*
G01*
X25160701Y-60699851D02*
G75*
G03X26924000Y-61722000I1763299J1009851D01*
G01*
X25134870Y-58726653D02*
G75*
G03X24892000Y-59690000I1789130J-963347D01*
G01*
X24893077Y-59690100D02*
G75*
G03X25194260Y-60754260I2030923J100D01*
G01*
D15*
X30734000Y-41656000D02*
X30734000Y-34544000D01*
X30734000Y-34544000D02*
X32766000Y-34544000D01*
X32766000Y-34544000D02*
X32766000Y-41656000D01*
X32766000Y-41656000D02*
X30734000Y-41656000D01*
X31242000Y-41656000D02*
X30734000Y-41148000D01*
X20574000Y-41656000D02*
X20574000Y-34544000D01*
X20574000Y-34544000D02*
X22606000Y-34544000D01*
X22606000Y-34544000D02*
X22606000Y-41656000D01*
X22606000Y-41656000D02*
X20574000Y-41656000D01*
X21082000Y-41656000D02*
X20574000Y-41148000D01*
X33020000Y-31750000D02*
X22860000Y-31750000D01*
X33020000Y-33020000D02*
X33020000Y-25400000D01*
X33020000Y-25400000D02*
X22860000Y-25400000D01*
X22860000Y-25400000D02*
X22860000Y-33020000D01*
X22860000Y-33020000D02*
X33020000Y-33020000D01*
X53340000Y-31750000D02*
X43180000Y-31750000D01*
X53340000Y-33020000D02*
X53340000Y-25400000D01*
X53340000Y-25400000D02*
X43180000Y-25400000D01*
X43180000Y-25400000D02*
X43180000Y-33020000D01*
X43180000Y-33020000D02*
X53340000Y-33020000D01*
D14*
X27940000Y-45720000D02*
X27940000Y-46990000D01*
X27940000Y-46990000D02*
X25400000Y-46990000D01*
X25400000Y-46990000D02*
X25400000Y-45720000D01*
X29210000Y-45720000D02*
X29210000Y-55880000D01*
X29210000Y-55880000D02*
X24130000Y-55880000D01*
X24130000Y-55880000D02*
X24130000Y-45720000D01*
X24130000Y-45720000D02*
X29210000Y-45720000D01*
D15*
X31115000Y-68580000D02*
X31115000Y-69850000D01*
X34925000Y-68580000D02*
X34925000Y-69850000D01*
X31115000Y-69850000D02*
G75*
G03X33020000Y-71755000I1905000J0D01*
G01*
X33020000Y-71755000D02*
G75*
G03X34925000Y-69850000I0J1905000D01*
G01*
X31115000Y-68580000D02*
X34925000Y-68580000D01*
X52705000Y-68580000D02*
X52705000Y-67310000D01*
X48895000Y-68580000D02*
X48895000Y-67310000D01*
X52705000Y-67310000D02*
G75*
G03X50800000Y-65405000I-1905000J0D01*
G01*
X50800000Y-65405000D02*
G75*
G03X48895000Y-67310000I0J-1905000D01*
G01*
X52705000Y-68580000D02*
X48895000Y-68580000D01*
X48895000Y-63500000D02*
X48895000Y-62230000D01*
X45085000Y-63500000D02*
X45085000Y-62230000D01*
X48895000Y-62230000D02*
G75*
G03X46990000Y-60325000I-1905000J0D01*
G01*
X46990000Y-60325000D02*
G75*
G03X45085000Y-62230000I0J-1905000D01*
G01*
X48895000Y-63500000D02*
X45085000Y-63500000D01*
X52705000Y-60960000D02*
X52705000Y-62230000D01*
X56515000Y-60960000D02*
X56515000Y-62230000D01*
X52705000Y-62230000D02*
G75*
G03X54610000Y-64135000I1905000J0D01*
G01*
X54610000Y-64135000D02*
G75*
G03X56515000Y-62230000I0J1905000D01*
G01*
X52705000Y-60960000D02*
X56515000Y-60960000D01*
X24765000Y-39370000D02*
X24765000Y-40640000D01*
X28575000Y-39370000D02*
X28575000Y-40640000D01*
X24765000Y-40640000D02*
G75*
G03X26670000Y-42545000I1905000J0D01*
G01*
X26670000Y-42545000D02*
G75*
G03X28575000Y-40640000I0J1905000D01*
G01*
X24765000Y-39370000D02*
X28575000Y-39370000D01*
D16*
X49530000Y-52705000D02*
X49530000Y-52070000D01*
X49530000Y-52070000D02*
X59690000Y-52070000D01*
X59690000Y-52070000D02*
X59690000Y-52705000D01*
X49530000Y-56515000D02*
X49530000Y-52705000D01*
X49530000Y-52705000D02*
X59690000Y-52705000D01*
X59690000Y-52705000D02*
X59690000Y-56515000D01*
X59690000Y-56515000D02*
X49530000Y-56515000D01*
X20066000Y-69850000D02*
G75*
G03X20066000Y-69850000I-2286000J0D01*
G01*
X59436000Y-69850000D02*
G75*
G03X59436000Y-69850000I-2286000J0D01*
G01*
X59436000Y-27940000D02*
G75*
G03X59436000Y-27940000I-2286000J0D01*
G01*
X20066000Y-27940000D02*
G75*
G03X20066000Y-27940000I-2286000J0D01*
G01*
D15*
X43434000Y-58166000D02*
X43434000Y-51054000D01*
X43434000Y-51054000D02*
X45466000Y-51054000D01*
X45466000Y-51054000D02*
X45466000Y-58166000D01*
X45466000Y-58166000D02*
X43434000Y-58166000D01*
X43942000Y-58166000D02*
X43434000Y-57658000D01*
D13*
X15240000Y-57150000D02*
X17780000Y-57150000D01*
X17780000Y-57150000D02*
X17780000Y-64770000D01*
X17780000Y-64770000D02*
X15240000Y-64770000D01*
X15240000Y-64770000D02*
X15240000Y-57150000D01*
X17780000Y-59690000D02*
X15240000Y-59690000D01*
X19050000Y-57150000D02*
X21590000Y-57150000D01*
X21590000Y-57150000D02*
X21590000Y-64770000D01*
X21590000Y-64770000D02*
X19050000Y-64770000D01*
X19050000Y-64770000D02*
X19050000Y-57150000D01*
X21590000Y-59690000D02*
X19050000Y-59690000D01*
D17*
X33280000Y-45430000D02*
X33280000Y-41010000D01*
X35300000Y-45430000D02*
X35300000Y-41010000D01*
X33280000Y-45430000D02*
X33294000Y-45430000D01*
X35286000Y-45430000D02*
X35300000Y-45430000D01*
X33280000Y-41010000D02*
X33294000Y-41010000D01*
X35286000Y-41010000D02*
X35300000Y-41010000D01*
X32960000Y-50800000D02*
X32960000Y-50860000D01*
X32960000Y-50860000D02*
X35620000Y-50860000D01*
X35620000Y-50860000D02*
X35620000Y-50800000D01*
X35620000Y-50800000D02*
X32960000Y-50800000D01*
X32960000Y-49530000D02*
X32960000Y-48200000D01*
X32960000Y-48200000D02*
X34290000Y-48200000D01*
X35520000Y-43850000D02*
X38140000Y-43850000D01*
X38140000Y-43850000D02*
X38140000Y-37430000D01*
X38140000Y-37430000D02*
X35520000Y-37430000D01*
X35520000Y-37430000D02*
X35520000Y-43850000D01*
X36830000Y-44740000D02*
X36830000Y-43850000D01*
X36830000Y-36540000D02*
X36830000Y-37430000D01*
X14930000Y-42610000D02*
X14600000Y-42610000D01*
X14600000Y-42610000D02*
X14600000Y-33590000D01*
X14600000Y-33590000D02*
X14930000Y-33590000D01*
X18090000Y-42610000D02*
X18420000Y-42610000D01*
X18420000Y-42610000D02*
X18420000Y-33590000D01*
X18420000Y-33590000D02*
X18090000Y-33590000D01*
X14600000Y-41215000D02*
X18420000Y-41215000D01*
X38060000Y-43850000D02*
X40680000Y-43850000D01*
X40680000Y-43850000D02*
X40680000Y-37430000D01*
X40680000Y-37430000D02*
X38060000Y-37430000D01*
X38060000Y-37430000D02*
X38060000Y-43850000D01*
X39370000Y-44740000D02*
X39370000Y-43850000D01*
X39370000Y-36540000D02*
X39370000Y-37430000D01*
X43220000Y-37430000D02*
X40600000Y-37430000D01*
X40600000Y-37430000D02*
X40600000Y-43850000D01*
X40600000Y-43850000D02*
X43220000Y-43850000D01*
X43220000Y-43850000D02*
X43220000Y-37430000D01*
X41910000Y-36540000D02*
X41910000Y-37430000D01*
X41910000Y-44740000D02*
X41910000Y-43850000D01*
X34330000Y-56480000D02*
X31710000Y-56480000D01*
X31710000Y-56480000D02*
X31710000Y-62900000D01*
X31710000Y-62900000D02*
X34330000Y-62900000D01*
X34330000Y-62900000D02*
X34330000Y-56480000D01*
X33020000Y-55590000D02*
X33020000Y-56480000D01*
X33020000Y-63790000D02*
X33020000Y-62900000D01*
X40605000Y-68540000D02*
X40605000Y-71160000D01*
X40605000Y-71160000D02*
X47025000Y-71160000D01*
X47025000Y-71160000D02*
X47025000Y-68540000D01*
X47025000Y-68540000D02*
X40605000Y-68540000D01*
X39715000Y-69850000D02*
X40605000Y-69850000D01*
X47915000Y-69850000D02*
X47025000Y-69850000D01*
X36870000Y-56480000D02*
X34250000Y-56480000D01*
X34250000Y-56480000D02*
X34250000Y-62900000D01*
X34250000Y-62900000D02*
X36870000Y-62900000D01*
X36870000Y-62900000D02*
X36870000Y-56480000D01*
X35560000Y-55590000D02*
X35560000Y-56480000D01*
X35560000Y-63790000D02*
X35560000Y-62900000D01*
X39410000Y-56480000D02*
X36790000Y-56480000D01*
X36790000Y-56480000D02*
X36790000Y-62900000D01*
X36790000Y-62900000D02*
X39410000Y-62900000D01*
X39410000Y-62900000D02*
X39410000Y-56480000D01*
X38100000Y-55590000D02*
X38100000Y-56480000D01*
X38100000Y-63790000D02*
X38100000Y-62900000D01*
X39330000Y-62900000D02*
X41950000Y-62900000D01*
X41950000Y-62900000D02*
X41950000Y-56480000D01*
X41950000Y-56480000D02*
X39330000Y-56480000D01*
X39330000Y-56480000D02*
X39330000Y-62900000D01*
X40640000Y-63790000D02*
X40640000Y-62900000D01*
X40640000Y-55590000D02*
X40640000Y-56480000D01*
D10*
X17197000Y-52070000D02*
G75*
G03X17197000Y-52070000I-687000J0D01*
G01*
X17197000Y-54610000D02*
G75*
G03X17197000Y-54610000I-687000J0D01*
G01*
X26163200Y-59690000D02*
G75*
G03X26163200Y-59690000I-763200J0D01*
G01*
X28703200Y-59690000D02*
G75*
G03X28703200Y-59690000I-763200J0D01*
G01*
X32373500Y-40640000D02*
G75*
G03X32373500Y-40640000I-623500J0D01*
G01*
X32373500Y-35560000D02*
G75*
G03X32373500Y-35560000I-623500J0D01*
G01*
X22213500Y-40640000D02*
G75*
G03X22213500Y-40640000I-623500J0D01*
G01*
X22213500Y-35560000D02*
G75*
G03X22213500Y-35560000I-623500J0D01*
G01*
X31675000Y-29210000D02*
G75*
G03X31675000Y-29210000I-1195000J0D01*
G01*
X51995000Y-29210000D02*
G75*
G03X51995000Y-29210000I-1195000J0D01*
G01*
X23483500Y-49530000D02*
G75*
G03X23483500Y-49530000I-623500J0D01*
G01*
X23483500Y-52070000D02*
G75*
G03X23483500Y-52070000I-623500J0D01*
G01*
X23483500Y-54610000D02*
G75*
G03X23483500Y-54610000I-623500J0D01*
G01*
X31103500Y-54610000D02*
G75*
G03X31103500Y-54610000I-623500J0D01*
G01*
X31103500Y-52070000D02*
G75*
G03X31103500Y-52070000I-623500J0D01*
G01*
X31103500Y-49530000D02*
G75*
G03X31103500Y-49530000I-623500J0D01*
G01*
X31103500Y-46990000D02*
G75*
G03X31103500Y-46990000I-623500J0D01*
G01*
X33643500Y-69850000D02*
G75*
G03X33643500Y-69850000I-623500J0D01*
G01*
X31103500Y-69850000D02*
G75*
G03X31103500Y-69850000I-623500J0D01*
G01*
X51423500Y-67310000D02*
G75*
G03X51423500Y-67310000I-623500J0D01*
G01*
X53963500Y-67310000D02*
G75*
G03X53963500Y-67310000I-623500J0D01*
G01*
X47613500Y-62230000D02*
G75*
G03X47613500Y-62230000I-623500J0D01*
G01*
X50153500Y-62230000D02*
G75*
G03X50153500Y-62230000I-623500J0D01*
G01*
X55233500Y-62230000D02*
G75*
G03X55233500Y-62230000I-623500J0D01*
G01*
X52693500Y-62230000D02*
G75*
G03X52693500Y-62230000I-623500J0D01*
G01*
X27293500Y-40640000D02*
G75*
G03X27293500Y-40640000I-623500J0D01*
G01*
X24753500Y-40640000D02*
G75*
G03X24753500Y-40640000I-623500J0D01*
G01*
X52884000Y-54610000D02*
G75*
G03X52884000Y-54610000I-814000J0D01*
G01*
X57964000Y-54610000D02*
G75*
G03X57964000Y-54610000I-814000J0D01*
G01*
X19737000Y-69850000D02*
G75*
G03X19737000Y-69850000I-1957000J0D01*
G01*
X59107000Y-69850000D02*
G75*
G03X59107000Y-69850000I-1957000J0D01*
G01*
X59107000Y-27940000D02*
G75*
G03X59107000Y-27940000I-1957000J0D01*
G01*
X19737000Y-27940000D02*
G75*
G03X19737000Y-27940000I-1957000J0D01*
G01*
X45073500Y-57150000D02*
G75*
G03X45073500Y-57150000I-623500J0D01*
G01*
X45073500Y-52070000D02*
G75*
G03X45073500Y-52070000I-623500J0D01*
G01*
X17197000Y-60960000D02*
G75*
G03X17197000Y-60960000I-687000J0D01*
G01*
X17197000Y-63500000D02*
G75*
G03X17197000Y-63500000I-687000J0D01*
G01*
X21007000Y-60960000D02*
G75*
G03X21007000Y-60960000I-687000J0D01*
G01*
X21007000Y-63500000D02*
G75*
G03X21007000Y-63500000I-687000J0D01*
G01*
D13*
X19128619Y-53073904D02*
X18112619Y-53073904D01*
X19128619Y-52493333D02*
X18548048Y-52928761D01*
X18112619Y-52493333D02*
X18693190Y-53073904D01*
X19128619Y-51525714D02*
X19128619Y-52106285D01*
X19128619Y-51815999D02*
X18112619Y-51815999D01*
X18257762Y-51912761D01*
X18354524Y-52009523D01*
X18402905Y-52106285D01*
D18*
X27885572Y-57240714D02*
X27885572Y-56478714D01*
X28067000Y-56478714D01*
X28175857Y-56515000D01*
X28248429Y-56587571D01*
X28284714Y-56660143D01*
X28321000Y-56805286D01*
X28321000Y-56914143D01*
X28284714Y-57059286D01*
X28248429Y-57131857D01*
X28175857Y-57204429D01*
X28067000Y-57240714D01*
X27885572Y-57240714D01*
X28611286Y-56551286D02*
X28647572Y-56515000D01*
X28720143Y-56478714D01*
X28901572Y-56478714D01*
X28974143Y-56515000D01*
X29010429Y-56551286D01*
X29046714Y-56623857D01*
X29046714Y-56696429D01*
X29010429Y-56805286D01*
X28575000Y-57240714D01*
X29046714Y-57240714D01*
D19*
X32112857Y-38269333D02*
X32161238Y-38317714D01*
X32209619Y-38462857D01*
X32209619Y-38559619D01*
X32161238Y-38704761D01*
X32064476Y-38801523D01*
X31967714Y-38849904D01*
X31774190Y-38898285D01*
X31629048Y-38898285D01*
X31435524Y-38849904D01*
X31338762Y-38801523D01*
X31242000Y-38704761D01*
X31193619Y-38559619D01*
X31193619Y-38462857D01*
X31242000Y-38317714D01*
X31290381Y-38269333D01*
X31290381Y-37882285D02*
X31242000Y-37833904D01*
X31193619Y-37737142D01*
X31193619Y-37495238D01*
X31242000Y-37398476D01*
X31290381Y-37350095D01*
X31387143Y-37301714D01*
X31483905Y-37301714D01*
X31629048Y-37350095D01*
X32209619Y-37930666D01*
X32209619Y-37301714D01*
X21952857Y-38269333D02*
X22001238Y-38317714D01*
X22049619Y-38462857D01*
X22049619Y-38559619D01*
X22001238Y-38704761D01*
X21904476Y-38801523D01*
X21807714Y-38849904D01*
X21614190Y-38898285D01*
X21469048Y-38898285D01*
X21275524Y-38849904D01*
X21178762Y-38801523D01*
X21082000Y-38704761D01*
X21033619Y-38559619D01*
X21033619Y-38462857D01*
X21082000Y-38317714D01*
X21130381Y-38269333D01*
X22049619Y-37301714D02*
X22049619Y-37882285D01*
X22049619Y-37591999D02*
X21033619Y-37591999D01*
X21178762Y-37688761D01*
X21275524Y-37785523D01*
X21323905Y-37882285D01*
D15*
X20465143Y-27359429D02*
X20465143Y-25835429D01*
X21045715Y-25835429D01*
X21190857Y-25908000D01*
X21263429Y-25980571D01*
X21336000Y-26125714D01*
X21336000Y-26343429D01*
X21263429Y-26488571D01*
X21190857Y-26561143D01*
X21045715Y-26633714D01*
X20465143Y-26633714D01*
X22787429Y-27359429D02*
X21916572Y-27359429D01*
X22352000Y-27359429D02*
X22352000Y-25835429D01*
X22206857Y-26053143D01*
X22061715Y-26198286D01*
X21916572Y-26270857D01*
X39515143Y-29899429D02*
X39515143Y-28375429D01*
X40095715Y-28375429D01*
X40240857Y-28448000D01*
X40313429Y-28520571D01*
X40386000Y-28665714D01*
X40386000Y-28883429D01*
X40313429Y-29028571D01*
X40240857Y-29101143D01*
X40095715Y-29173714D01*
X39515143Y-29173714D01*
X40966572Y-28520571D02*
X41039143Y-28448000D01*
X41184286Y-28375429D01*
X41547143Y-28375429D01*
X41692286Y-28448000D01*
X41764857Y-28520571D01*
X41837429Y-28665714D01*
X41837429Y-28810857D01*
X41764857Y-29028571D01*
X40894000Y-29899429D01*
X41837429Y-29899429D01*
D19*
X28094215Y-45024524D02*
X28094215Y-43754524D01*
X29291644Y-44903571D02*
X29237215Y-44964048D01*
X29073929Y-45024524D01*
X28965072Y-45024524D01*
X28801787Y-44964048D01*
X28692929Y-44843095D01*
X28638501Y-44722143D01*
X28584072Y-44480238D01*
X28584072Y-44298810D01*
X28638501Y-44056905D01*
X28692929Y-43935952D01*
X28801787Y-43815000D01*
X28965072Y-43754524D01*
X29073929Y-43754524D01*
X29237215Y-43815000D01*
X29291644Y-43875476D01*
X30380215Y-45024524D02*
X29727072Y-45024524D01*
X30053644Y-45024524D02*
X30053644Y-43754524D01*
X29944787Y-43935952D01*
X29835929Y-44056905D01*
X29727072Y-44117381D01*
X30383238Y-72946381D02*
X30286476Y-72898000D01*
X30189714Y-72801238D01*
X30044571Y-72656095D01*
X29947810Y-72607714D01*
X29851048Y-72607714D01*
X29899429Y-72849619D02*
X29802667Y-72801238D01*
X29705905Y-72704476D01*
X29657524Y-72510952D01*
X29657524Y-72172286D01*
X29705905Y-71978762D01*
X29802667Y-71882000D01*
X29899429Y-71833619D01*
X30092952Y-71833619D01*
X30189714Y-71882000D01*
X30286476Y-71978762D01*
X30334857Y-72172286D01*
X30334857Y-72510952D01*
X30286476Y-72704476D01*
X30189714Y-72801238D01*
X30092952Y-72849619D01*
X29899429Y-72849619D01*
X31302476Y-72849619D02*
X30721905Y-72849619D01*
X31012191Y-72849619D02*
X31012191Y-71833619D01*
X30915429Y-71978762D01*
X30818667Y-72075524D01*
X30721905Y-72123905D01*
X50703238Y-64691381D02*
X50606476Y-64643000D01*
X50509714Y-64546238D01*
X50364571Y-64401095D01*
X50267810Y-64352714D01*
X50171048Y-64352714D01*
X50219429Y-64594619D02*
X50122667Y-64546238D01*
X50025905Y-64449476D01*
X49977524Y-64255952D01*
X49977524Y-63917286D01*
X50025905Y-63723762D01*
X50122667Y-63627000D01*
X50219429Y-63578619D01*
X50412952Y-63578619D01*
X50509714Y-63627000D01*
X50606476Y-63723762D01*
X50654857Y-63917286D01*
X50654857Y-64255952D01*
X50606476Y-64449476D01*
X50509714Y-64546238D01*
X50412952Y-64594619D01*
X50219429Y-64594619D01*
X51041905Y-63675381D02*
X51090286Y-63627000D01*
X51187048Y-63578619D01*
X51428952Y-63578619D01*
X51525714Y-63627000D01*
X51574095Y-63675381D01*
X51622476Y-63772143D01*
X51622476Y-63868905D01*
X51574095Y-64014048D01*
X50993524Y-64594619D01*
X51622476Y-64594619D01*
X46893238Y-59611381D02*
X46796476Y-59563000D01*
X46699714Y-59466238D01*
X46554571Y-59321095D01*
X46457810Y-59272714D01*
X46361048Y-59272714D01*
X46409429Y-59514619D02*
X46312667Y-59466238D01*
X46215905Y-59369476D01*
X46167524Y-59175952D01*
X46167524Y-58837286D01*
X46215905Y-58643762D01*
X46312667Y-58547000D01*
X46409429Y-58498619D01*
X46602952Y-58498619D01*
X46699714Y-58547000D01*
X46796476Y-58643762D01*
X46844857Y-58837286D01*
X46844857Y-59175952D01*
X46796476Y-59369476D01*
X46699714Y-59466238D01*
X46602952Y-59514619D01*
X46409429Y-59514619D01*
X47183524Y-58498619D02*
X47812476Y-58498619D01*
X47473810Y-58885667D01*
X47618952Y-58885667D01*
X47715714Y-58934048D01*
X47764095Y-58982429D01*
X47812476Y-59079190D01*
X47812476Y-59321095D01*
X47764095Y-59417857D01*
X47715714Y-59466238D01*
X47618952Y-59514619D01*
X47328667Y-59514619D01*
X47231905Y-59466238D01*
X47183524Y-59417857D01*
X54513238Y-65961381D02*
X54416476Y-65913000D01*
X54319714Y-65816238D01*
X54174571Y-65671095D01*
X54077810Y-65622714D01*
X53981048Y-65622714D01*
X54029429Y-65864619D02*
X53932667Y-65816238D01*
X53835905Y-65719476D01*
X53787524Y-65525952D01*
X53787524Y-65187286D01*
X53835905Y-64993762D01*
X53932667Y-64897000D01*
X54029429Y-64848619D01*
X54222952Y-64848619D01*
X54319714Y-64897000D01*
X54416476Y-64993762D01*
X54464857Y-65187286D01*
X54464857Y-65525952D01*
X54416476Y-65719476D01*
X54319714Y-65816238D01*
X54222952Y-65864619D01*
X54029429Y-65864619D01*
X55335714Y-65187286D02*
X55335714Y-65864619D01*
X55093810Y-64800238D02*
X54851905Y-65525952D01*
X55480857Y-65525952D01*
X24625905Y-42623619D02*
X24625905Y-43446095D01*
X24674286Y-43542857D01*
X24722667Y-43591238D01*
X24819429Y-43639619D01*
X25012952Y-43639619D01*
X25109714Y-43591238D01*
X25158095Y-43542857D01*
X25206476Y-43446095D01*
X25206476Y-42623619D01*
X26222476Y-43639619D02*
X25641905Y-43639619D01*
X25932191Y-43639619D02*
X25932191Y-42623619D01*
X25835429Y-42768762D01*
X25738667Y-42865524D01*
X25641905Y-42913905D01*
X54513238Y-58619571D02*
X54416476Y-58547000D01*
X54319714Y-58401857D01*
X54174571Y-58184143D01*
X54077810Y-58111571D01*
X53981048Y-58111571D01*
X54029429Y-58474429D02*
X53932667Y-58401857D01*
X53835905Y-58256714D01*
X53787524Y-57966429D01*
X53787524Y-57458429D01*
X53835905Y-57168143D01*
X53932667Y-57023000D01*
X54029429Y-56950429D01*
X54222952Y-56950429D01*
X54319714Y-57023000D01*
X54416476Y-57168143D01*
X54464857Y-57458429D01*
X54464857Y-57966429D01*
X54416476Y-58256714D01*
X54319714Y-58401857D01*
X54222952Y-58474429D01*
X54029429Y-58474429D01*
X55384095Y-56950429D02*
X54900286Y-56950429D01*
X54851905Y-57676143D01*
X54900286Y-57603571D01*
X54997048Y-57531000D01*
X55238952Y-57531000D01*
X55335714Y-57603571D01*
X55384095Y-57676143D01*
X55432476Y-57821286D01*
X55432476Y-58184143D01*
X55384095Y-58329286D01*
X55335714Y-58401857D01*
X55238952Y-58474429D01*
X54997048Y-58474429D01*
X54900286Y-58401857D01*
X54851905Y-58329286D01*
X44812857Y-54779333D02*
X44861238Y-54827714D01*
X44909619Y-54972857D01*
X44909619Y-55069619D01*
X44861238Y-55214761D01*
X44764476Y-55311523D01*
X44667714Y-55359904D01*
X44474190Y-55408285D01*
X44329048Y-55408285D01*
X44135524Y-55359904D01*
X44038762Y-55311523D01*
X43942000Y-55214761D01*
X43893619Y-55069619D01*
X43893619Y-54972857D01*
X43942000Y-54827714D01*
X43990381Y-54779333D01*
X43893619Y-54440666D02*
X43893619Y-53811714D01*
X44280667Y-54150380D01*
X44280667Y-54005238D01*
X44329048Y-53908476D01*
X44377429Y-53860095D01*
X44474190Y-53811714D01*
X44716095Y-53811714D01*
X44812857Y-53860095D01*
X44861238Y-53908476D01*
X44909619Y-54005238D01*
X44909619Y-54295523D01*
X44861238Y-54392285D01*
X44812857Y-54440666D01*
D13*
X19128619Y-61963904D02*
X18112619Y-61963904D01*
X19128619Y-61383333D02*
X18548048Y-61818761D01*
X18112619Y-61383333D02*
X18693190Y-61963904D01*
X18209381Y-60996285D02*
X18161000Y-60947904D01*
X18112619Y-60851142D01*
X18112619Y-60609238D01*
X18161000Y-60512476D01*
X18209381Y-60464095D01*
X18306143Y-60415714D01*
X18402905Y-60415714D01*
X18548048Y-60464095D01*
X19128619Y-61044666D01*
X19128619Y-60415714D01*
X22938619Y-61963904D02*
X21922619Y-61963904D01*
X22938619Y-61383333D02*
X22358048Y-61818761D01*
X21922619Y-61383333D02*
X22503190Y-61963904D01*
X21922619Y-61044666D02*
X21922619Y-60415714D01*
X22309667Y-60754380D01*
X22309667Y-60609238D01*
X22358048Y-60512476D01*
X22406429Y-60464095D01*
X22503190Y-60415714D01*
X22745095Y-60415714D01*
X22841857Y-60464095D01*
X22890238Y-60512476D01*
X22938619Y-60609238D01*
X22938619Y-60899523D01*
X22890238Y-60996285D01*
X22841857Y-61044666D01*
D10*
X32637143Y-43386666D02*
X32684762Y-43434285D01*
X32732381Y-43577142D01*
X32732381Y-43672380D01*
X32684762Y-43815238D01*
X32589524Y-43910476D01*
X32494286Y-43958095D01*
X32303810Y-44005714D01*
X32160952Y-44005714D01*
X31970476Y-43958095D01*
X31875238Y-43910476D01*
X31780000Y-43815238D01*
X31732381Y-43672380D01*
X31732381Y-43577142D01*
X31780000Y-43434285D01*
X31827619Y-43386666D01*
X32065714Y-42529523D02*
X32732381Y-42529523D01*
X31684762Y-42767619D02*
X32399048Y-43005714D01*
X32399048Y-42386666D01*
X33956667Y-46652381D02*
X33956667Y-47366667D01*
X33909047Y-47509524D01*
X33813809Y-47604762D01*
X33670952Y-47652381D01*
X33575714Y-47652381D01*
X34956667Y-47652381D02*
X34385238Y-47652381D01*
X34670952Y-47652381D02*
X34670952Y-46652381D01*
X34575714Y-46795238D01*
X34480476Y-46890476D01*
X34385238Y-46938095D01*
X37282381Y-40806666D02*
X36806190Y-41140000D01*
X37282381Y-41378095D02*
X36282381Y-41378095D01*
X36282381Y-40997142D01*
X36330000Y-40901904D01*
X36377619Y-40854285D01*
X36472857Y-40806666D01*
X36615714Y-40806666D01*
X36710952Y-40854285D01*
X36758571Y-40901904D01*
X36806190Y-40997142D01*
X36806190Y-41378095D01*
X36710952Y-40235238D02*
X36663333Y-40330476D01*
X36615714Y-40378095D01*
X36520476Y-40425714D01*
X36472857Y-40425714D01*
X36377619Y-40378095D01*
X36330000Y-40330476D01*
X36282381Y-40235238D01*
X36282381Y-40044761D01*
X36330000Y-39949523D01*
X36377619Y-39901904D01*
X36472857Y-39854285D01*
X36520476Y-39854285D01*
X36615714Y-39901904D01*
X36663333Y-39949523D01*
X36710952Y-40044761D01*
X36710952Y-40235238D01*
X36758571Y-40330476D01*
X36806190Y-40378095D01*
X36901429Y-40425714D01*
X37091905Y-40425714D01*
X37187143Y-40378095D01*
X37234762Y-40330476D01*
X37282381Y-40235238D01*
X37282381Y-40044761D01*
X37234762Y-39949523D01*
X37187143Y-39901904D01*
X37091905Y-39854285D01*
X36901429Y-39854285D01*
X36806190Y-39901904D01*
X36758571Y-39949523D01*
X36710952Y-40044761D01*
X16962381Y-38838095D02*
X15962381Y-38838095D01*
X15962381Y-38600000D01*
X16010000Y-38457142D01*
X16105238Y-38361904D01*
X16200476Y-38314285D01*
X16390952Y-38266666D01*
X16533810Y-38266666D01*
X16724286Y-38314285D01*
X16819524Y-38361904D01*
X16914762Y-38457142D01*
X16962381Y-38600000D01*
X16962381Y-38838095D01*
X16962381Y-37314285D02*
X16962381Y-37885714D01*
X16962381Y-37600000D02*
X15962381Y-37600000D01*
X16105238Y-37695238D01*
X16200476Y-37790476D01*
X16248095Y-37885714D01*
X39822381Y-40806666D02*
X39346190Y-41140000D01*
X39822381Y-41378095D02*
X38822381Y-41378095D01*
X38822381Y-40997142D01*
X38870000Y-40901904D01*
X38917619Y-40854285D01*
X39012857Y-40806666D01*
X39155714Y-40806666D01*
X39250952Y-40854285D01*
X39298571Y-40901904D01*
X39346190Y-40997142D01*
X39346190Y-41378095D01*
X38822381Y-39949523D02*
X38822381Y-40140000D01*
X38870000Y-40235238D01*
X38917619Y-40282857D01*
X39060476Y-40378095D01*
X39250952Y-40425714D01*
X39631905Y-40425714D01*
X39727143Y-40378095D01*
X39774762Y-40330476D01*
X39822381Y-40235238D01*
X39822381Y-40044761D01*
X39774762Y-39949523D01*
X39727143Y-39901904D01*
X39631905Y-39854285D01*
X39393810Y-39854285D01*
X39298571Y-39901904D01*
X39250952Y-39949523D01*
X39203333Y-40044761D01*
X39203333Y-40235238D01*
X39250952Y-40330476D01*
X39298571Y-40378095D01*
X39393810Y-40425714D01*
X42362381Y-40806666D02*
X41886190Y-41140000D01*
X42362381Y-41378095D02*
X41362381Y-41378095D01*
X41362381Y-40997142D01*
X41410000Y-40901904D01*
X41457619Y-40854285D01*
X41552857Y-40806666D01*
X41695714Y-40806666D01*
X41790952Y-40854285D01*
X41838571Y-40901904D01*
X41886190Y-40997142D01*
X41886190Y-41378095D01*
X41362381Y-40473333D02*
X41362381Y-39806666D01*
X42362381Y-40235238D01*
X33472381Y-59856666D02*
X32996190Y-60190000D01*
X33472381Y-60428095D02*
X32472381Y-60428095D01*
X32472381Y-60047142D01*
X32520000Y-59951904D01*
X32567619Y-59904285D01*
X32662857Y-59856666D01*
X32805714Y-59856666D01*
X32900952Y-59904285D01*
X32948571Y-59951904D01*
X32996190Y-60047142D01*
X32996190Y-60428095D01*
X32805714Y-58999523D02*
X33472381Y-58999523D01*
X32424762Y-59237619D02*
X33139048Y-59475714D01*
X33139048Y-58856666D01*
X43648334Y-70302381D02*
X43315000Y-69826190D01*
X43076905Y-70302381D02*
X43076905Y-69302381D01*
X43457858Y-69302381D01*
X43553096Y-69350000D01*
X43600715Y-69397619D01*
X43648334Y-69492857D01*
X43648334Y-69635714D01*
X43600715Y-69730952D01*
X43553096Y-69778571D01*
X43457858Y-69826190D01*
X43076905Y-69826190D01*
X43981667Y-69302381D02*
X44600715Y-69302381D01*
X44267381Y-69683333D01*
X44410239Y-69683333D01*
X44505477Y-69730952D01*
X44553096Y-69778571D01*
X44600715Y-69873810D01*
X44600715Y-70111905D01*
X44553096Y-70207143D01*
X44505477Y-70254762D01*
X44410239Y-70302381D01*
X44124524Y-70302381D01*
X44029286Y-70254762D01*
X43981667Y-70207143D01*
X36012381Y-59856666D02*
X35536190Y-60190000D01*
X36012381Y-60428095D02*
X35012381Y-60428095D01*
X35012381Y-60047142D01*
X35060000Y-59951904D01*
X35107619Y-59904285D01*
X35202857Y-59856666D01*
X35345714Y-59856666D01*
X35440952Y-59904285D01*
X35488571Y-59951904D01*
X35536190Y-60047142D01*
X35536190Y-60428095D01*
X36012381Y-58904285D02*
X36012381Y-59475714D01*
X36012381Y-59190000D02*
X35012381Y-59190000D01*
X35155238Y-59285238D01*
X35250476Y-59380476D01*
X35298095Y-59475714D01*
X40862381Y-59856666D02*
X40386190Y-60190000D01*
X40862381Y-60428095D02*
X39862381Y-60428095D01*
X39862381Y-60047142D01*
X39910000Y-59951904D01*
X39957619Y-59904285D01*
X40052857Y-59856666D01*
X40195714Y-59856666D01*
X40290952Y-59904285D01*
X40338571Y-59951904D01*
X40386190Y-60047142D01*
X40386190Y-60428095D01*
X39957619Y-59475714D02*
X39910000Y-59428095D01*
X39862381Y-59332857D01*
X39862381Y-59094761D01*
X39910000Y-58999523D01*
X39957619Y-58951904D01*
X40052857Y-58904285D01*
X40148095Y-58904285D01*
X40290952Y-58951904D01*
X40862381Y-59523333D01*
X40862381Y-58904285D01*
X38782381Y-59856666D02*
X38306190Y-60190000D01*
X38782381Y-60428095D02*
X37782381Y-60428095D01*
X37782381Y-60047142D01*
X37830000Y-59951904D01*
X37877619Y-59904285D01*
X37972857Y-59856666D01*
X38115714Y-59856666D01*
X38210952Y-59904285D01*
X38258571Y-59951904D01*
X38306190Y-60047142D01*
X38306190Y-60428095D01*
X37782381Y-58951904D02*
X37782381Y-59428095D01*
X38258571Y-59475714D01*
X38210952Y-59428095D01*
X38163333Y-59332857D01*
X38163333Y-59094761D01*
X38210952Y-58999523D01*
X38258571Y-58951904D01*
X38353810Y-58904285D01*
X38591905Y-58904285D01*
X38687143Y-58951904D01*
X38734762Y-58999523D01*
X38782381Y-59094761D01*
X38782381Y-59332857D01*
X38734762Y-59428095D01*
X38687143Y-59475714D01*
M02*
