M48
;DRILL file {KiCad 4.0.6} date 06/04/17 19:10:05
;FORMAT={-:-/ absolute / inch / decimal}
FMAT,2
INCH,TZ
T1C0.025
T2C0.031
T3C0.032
T4C0.039
T5C0.040
T6C0.055
T7C0.060
T8C0.120
%
G90
G05
M72
T1
X1.675Y-1.675
T2
X1.3Y-2.15
X1.3Y-2.55
X1.35Y-1.6031
X1.35Y-1.8
X1.4Y-2.15
X1.4Y-2.55
X1.45Y-1.4
X1.45Y-1.8
X1.5Y-2.15
X1.5Y-2.55
X1.525Y-2.75
X1.55Y-1.4
X1.55Y-1.8
X1.6Y-2.15
X1.6Y-2.55
X1.65Y-1.4
X1.65Y-1.8
X1.925Y-2.75
T3
X0.85Y-1.4
X0.85Y-1.6
X0.9Y-1.85
X0.9Y-1.95
X0.9Y-2.05
X0.9Y-2.15
X0.95Y-1.6
X1.Y-2.35
X1.05Y-1.6
X1.1Y-2.35
X1.15Y-1.6
X1.2Y-1.85
X1.2Y-1.95
X1.2Y-2.05
X1.2Y-2.15
X1.2Y-2.75
X1.25Y-1.4
X1.25Y-1.6
X1.3Y-2.75
X1.4Y-2.75
X1.75Y-2.05
X1.75Y-2.25
X1.75Y-2.45
X1.85Y-2.45
X1.9Y-2.65
X1.95Y-2.45
X2.Y-2.65
X2.05Y-2.45
X2.1Y-2.65
X2.15Y-2.45
X2.25Y-2.45
T4
X1.35Y-1.95
T5
X0.65Y-1.95
X0.65Y-2.05
X0.65Y-2.15
X0.65Y-2.3
X0.65Y-2.4
X0.65Y-2.5
X0.8Y-2.3
X0.8Y-2.4
X0.8Y-2.5
X2.05Y-2.15
X2.15Y-2.15
X2.25Y-2.15
T6
X0.65Y-1.3
X0.65Y-1.7
T7
X1.Y-1.15
X1.2Y-1.15
X1.8Y-1.15
X2.Y-1.15
T8
X0.7Y-1.1
X0.7Y-2.75
X2.25Y-1.1
X2.25Y-2.75
T0
M30
