G04 #@! TF.FileFunction,Soldermask,Top*
%FSLAX46Y46*%
G04 Gerber Fmt 4.6, Leading zero omitted, Abs format (unit mm)*
G04 Created by KiCad (PCBNEW 4.0.6) date 06/04/17 20:23:42*
%MOMM*%
%LPD*%
G01*
G04 APERTURE LIST*
%ADD10C,0.150000*%
%ADD11C,0.100000*%
%ADD12R,1.524000X1.524000*%
%ADD13C,1.524000*%
%ADD14C,1.676400*%
%ADD15C,1.397000*%
%ADD16R,2.540000X2.540000*%
%ADD17C,2.540000*%
%ADD18R,1.397000X1.397000*%
%ADD19C,1.778000*%
%ADD20R,1.778000X1.778000*%
%ADD21C,4.064000*%
%ADD22C,1.600000*%
%ADD23R,1.700000X1.700000*%
%ADD24O,1.600000X1.600000*%
%ADD25R,2.800000X2.800000*%
%ADD26O,2.800000X2.800000*%
G04 APERTURE END LIST*
D10*
D11*
X60960000Y-24130000D02*
X60960000Y-73660000D01*
X13970000Y-24130000D02*
X13970000Y-73660000D01*
X60960000Y-73660000D02*
X13970000Y-73660000D01*
X13970000Y-24130000D02*
X60960000Y-24130000D01*
D12*
X16510000Y-49530000D03*
D13*
X16510000Y-52070000D03*
X16510000Y-54610000D03*
D14*
X25400000Y-59690000D03*
X27940000Y-59690000D03*
D15*
X31750000Y-40640000D03*
X31750000Y-35560000D03*
X21590000Y-40640000D03*
X21590000Y-35560000D03*
D16*
X25400000Y-29210000D03*
D17*
X30480000Y-29210000D03*
D16*
X45720000Y-29210000D03*
D17*
X50800000Y-29210000D03*
D18*
X22860000Y-46990000D03*
D15*
X22860000Y-49530000D03*
X22860000Y-52070000D03*
X22860000Y-54610000D03*
X30480000Y-54610000D03*
X30480000Y-52070000D03*
X30480000Y-49530000D03*
X30480000Y-46990000D03*
D18*
X35560000Y-69850000D03*
D15*
X33020000Y-69850000D03*
X30480000Y-69850000D03*
D18*
X48260000Y-67310000D03*
D15*
X50800000Y-67310000D03*
X53340000Y-67310000D03*
D18*
X44450000Y-62230000D03*
D15*
X46990000Y-62230000D03*
X49530000Y-62230000D03*
D18*
X57150000Y-62230000D03*
D15*
X54610000Y-62230000D03*
X52070000Y-62230000D03*
D18*
X29210000Y-40640000D03*
D15*
X26670000Y-40640000D03*
X24130000Y-40640000D03*
D19*
X52070000Y-54610000D03*
X57150000Y-54610000D03*
D20*
X54610000Y-54610000D03*
D21*
X17780000Y-69850000D03*
X57150000Y-69850000D03*
X57150000Y-27940000D03*
X17780000Y-27940000D03*
D15*
X44450000Y-57150000D03*
X44450000Y-52070000D03*
D12*
X16510000Y-58420000D03*
D13*
X16510000Y-60960000D03*
X16510000Y-63500000D03*
D12*
X20320000Y-58420000D03*
D13*
X20320000Y-60960000D03*
X20320000Y-63500000D03*
D22*
X34290000Y-45720000D03*
X34290000Y-40720000D03*
D23*
X34290000Y-49530000D03*
D22*
X36830000Y-45720000D03*
D24*
X36830000Y-35560000D03*
D25*
X16510000Y-43180000D03*
D26*
X16510000Y-33020000D03*
D22*
X39370000Y-45720000D03*
D24*
X39370000Y-35560000D03*
D22*
X41910000Y-35560000D03*
D24*
X41910000Y-45720000D03*
D22*
X33020000Y-54610000D03*
D24*
X33020000Y-64770000D03*
D22*
X38735000Y-69850000D03*
D24*
X48895000Y-69850000D03*
D22*
X35560000Y-54610000D03*
D24*
X35560000Y-64770000D03*
D22*
X38100000Y-54610000D03*
D24*
X38100000Y-64770000D03*
D22*
X40640000Y-64770000D03*
D24*
X40640000Y-54610000D03*
M02*
